# xmcd CD database file
#
# Track frame offsets:
#	150
#	29237
#	47762
#	72812
#	90812
#	118712
#	138812
#	154712
#	166187
#	178412
#	200687
#
# Disc length: 2989 seconds
#
# Revision: 0
# Processed by: cddbd v1.5.2PL0 Copyright (c) Steve Scherf et al.
# Submitted via: CDex 1.51
#
DISCID=930bab0b
DTITLE=Martin Albrecht Quartet - First Edition
DYEAR=1993
DGENRE=Jazz
TTITLE0=Heartaches
TTITLE1=Soul Station
TTITLE2=Cry Me A river
TTITLE3=So Danco Samba
TTITLE4=I Wish I Know
TTITLE5=Lovely And Sweet
TTITLE6=Rosetta
TTITLE7=Centerpiece
TTITLE8=The More I See You
TTITLE9=Bass Picker's Blues
TTITLE10=God Bless Les
EXTD=YEAR: 1993
EXTT0=
EXTT1=
EXTT2=
EXTT3=
EXTT4=
EXTT5=
EXTT6=
EXTT7=
EXTT8=
EXTT9=
EXTT10=
PLAYORDER=
